<?xml version="1.0" encoding="UTF-8" standalone="no"?>
<svg
   id="svg3003"
   version="1.1"
   width="100"
   height="35"
   viewBox="0 0 93.75 32.812501"
   sodipodi:docname="logo-blue-light.svg"
   inkscape:version="1.1.2 (0a00cf5339, 2022-02-04)"
   xmlns:inkscape="http://www.inkscape.org/namespaces/inkscape"
   xmlns:sodipodi="http://sodipodi.sourceforge.net/DTD/sodipodi-0.dtd"
   xmlns="http://www.w3.org/2000/svg"
   xmlns:svg="http://www.w3.org/2000/svg"
   xmlns:rdf="http://www.w3.org/1999/02/22-rdf-syntax-ns#"
   xmlns:cc="http://creativecommons.org/ns#"
   xmlns:dc="http://purl.org/dc/elements/1.1/">
  <sodipodi:namedview
     id="namedview16"
     pagecolor="#ffffff"
     bordercolor="#666666"
     borderopacity="1.0"
     inkscape:pageshadow="2"
     inkscape:pageopacity="0.0"
     inkscape:pagecheckerboard="0"
     showgrid="false"
     width="300px"
     height="104.13333px"
     inkscape:zoom="3.7889281"
     inkscape:cx="91.58263"
     inkscape:cy="36.289947"
     inkscape:window-width="1920"
     inkscape:window-height="1016"
     inkscape:window-x="1920"
     inkscape:window-y="27"
     inkscape:window-maximized="1"
     inkscape:current-layer="svg3003" />
  <metadata
     id="metadata3009">
    <rdf:RDF>
      <cc:Work
         rdf:about="">
        <dc:format>image/svg+xml</dc:format>
        <dc:type
           rdf:resource="http://purl.org/dc/dcmitype/StillImage" />
      </cc:Work>
    </rdf:RDF>
  </metadata>
  <defs
     id="defs3007" />
  <ellipse
     style="fill:#8dc73f;fill-opacity:1;stroke-width:0.478059;stroke-linecap:round;stroke-linejoin:round;stop-color:#000000"
     id="path7-2-1"
     cx="23.681974"
     cy="-7.5246921"
     rx="2.4501595"
     ry="3.6394501"
     transform="matrix(0.52767286,0.84944768,-0.85374564,0.5206903,0,0)" />
  <ellipse
     style="fill:#8dc73f;fill-opacity:1;stroke-width:0.509665;stroke-linecap:round;stroke-linejoin:round;stop-color:#000000"
     id="ellipse9"
     cx="6.4788842"
     cy="6.9262238"
     rx="2.7999635"
     ry="3.6198392"
     transform="matrix(0.99041663,0.1381119,-0.17833866,0.98396917,0,0)" />
  <ellipse
     style="fill:#8dc73f;fill-opacity:1;stroke-width:0.546719;stroke-linecap:round;stroke-linejoin:round;stop-color:#000000"
     id="path7"
     cx="13.831202"
     cy="0.37991241"
     rx="2.9446075"
     ry="3.9606781"
     transform="matrix(0.9374296,0.34817487,-0.42799698,0.90378016,0,0)" />
  <ellipse
     style="fill:#8dc73f;fill-opacity:1;stroke-width:0.547793;stroke-linecap:round;stroke-linejoin:round;stop-color:#000000"
     id="path7-2"
     cx="18.762968"
     cy="-6.616642"
     rx="2.8092344"
     ry="4.1678386"
     transform="matrix(0.73314896,0.68006809,-0.76536918,0.6435915,0,0)" />
  <path
     style="fill:#8dc73f;fill-opacity:1;stroke:none;stroke-width:0.233241px;stroke-linecap:butt;stroke-linejoin:miter;stroke-opacity:1"
     d="M 0.96964574,16.242547 C 1.6044173,13.644092 7.1728728,11.482619 9.6943671,11.668399 16.367073,12.577852 16.761828,24.128933 10.195788,22.400055 8.6765937,22.000042 8.2524786,19.845619 7.1041853,19.227085 4.8076857,18.201174 0.63522078,19.235677 0.96964574,16.242547 Z"
     id="path41" />
  <path
     style="opacity:1;fill:#000000;fill-opacity:1;stroke:none;stroke-width:0.233241px;stroke-linecap:butt;stroke-linejoin:miter;stroke-opacity:1"
     d="m 17.516531,15.626796 5.214776,-0.703714 2.306537,5.893614 2.707671,-5.80565 3.610231,0.439822 v -0.351857 h 1.704826 v -2.550968 l 5.315066,-0.571769 v 3.342648 l 3.710509,-0.04398 v 1.847253 l -3.710509,0.21991 c 0,0 0.03949,2.946308 0,5.101936 -0.0085,0.463553 0.415574,0.884166 1.103126,1.099554 1.403974,0.439824 2.406817,-0.08797 2.406817,-0.08797 l 0.701988,1.935217 c -1.140951,0.516984 -3.916616,0.893595 -5.816481,0.659732 -1.258027,-0.154858 -3.575357,-0.572138 -3.610231,-2.682914 l -0.100285,-6.069542 -1.905395,-0.08797 -4.813638,8.796439 h -4.011368 z"
     id="path43" />
  <ellipse
     style="opacity:1;fill:#000000;fill-opacity:1;stroke:none;stroke-width:0.46648;stroke-linecap:round;stroke-linejoin:round;stop-color:#000000"
     id="path45"
     cx="46.097515"
     cy="12.06424"
     rx="2.7076721"
     ry="2.3310561" />
  <rect
     style="opacity:1;fill:#000000;fill-opacity:1;stroke:none;stroke-width:0.46648;stroke-linecap:round;stroke-linejoin:round;stop-color:#000000"
     id="rect47"
     width="5.6159124"
     height="10.731656"
     x="43.189274"
     y="15.186975" />
  <path
     d="m 65.366909,24.846196 c 0,2.062587 -0.949194,3.658377 -2.446449,4.787372 -1.497255,1.136233 -3.666006,1.70435 -6.50625,1.70435 -1.878371,0 -3.968253,-0.477389 -5.06624,-0.904381 l 0.902554,-2.579746 c 1.433735,0.665817 2.580229,0.954743 4.041186,0.954743 1.45188,0 2.276239,-0.263595 3.074775,-0.878752 0.798532,-0.60792 0.937465,-1.481865 0.997232,-2.529944 v -0.879311 h -0.05444 c -0.980017,1.244789 -1.925944,1.867183 -3.840616,1.867183 -1.778553,0 -3.590738,-0.499364 -4.634281,-1.498089 -1.043539,-0.998728 -1.56531,-2.337601 -1.56531,-4.016619 0,-1.881658 0.580754,-3.376129 1.742261,-4.483413 1.161506,-1.107284 3.091658,-1.660926 4.988177,-1.660926 1.696891,0 2.465865,0.521076 3.309769,1.563225 h 0.05444 v -1.291832 h 5.003192 z M 60.317879,20.7753 v -0.879313 c 0,-0.702003 -0.263156,-1.299068 -0.789464,-1.791194 -0.517231,-0.499363 -0.591557,-0.749045 -1.426392,-0.749045 -0.952797,0 -1.099715,0.296723 -1.644172,0.89017 -0.544457,0.593446 -0.816686,1.429336 -0.816686,2.507671 0,0.926355 0.258617,1.660925 0.775852,2.203711 0.517228,0.535547 0.623315,0.803323 1.521669,0.803323 0.889278,0 1.004442,-0.271394 1.548898,-0.814178 0.553533,-0.550023 0.830295,-1.273739 0.830295,-2.171145 z"
     style="font-style:normal;font-variant:normal;font-weight:bold;font-stretch:normal;font-size:88.813px;line-height:1.25;font-family:Ebrima;-inkscape-font-specification:'Ebrima Bold';letter-spacing:0px;word-spacing:0px;opacity:1;fill:#000000;stroke-width:0.933559"
     id="path53" />
  <path
     d="m 81.471149,21.460674 h -9.15453 c 0.154189,1.554499 1.909277,2.331747 3.560437,2.331747 1.628597,0 3.059645,-0.278833 4.29314,-0.836499 l 0.701993,1.944207 c -1.368414,0.529786 -3.848368,1.2345 -6.035893,1.2345 -2.389896,0 -4.244953,-0.477504 -5.565178,-1.43251 -1.320225,-0.961978 -1.98034,-2.300381 -1.98034,-4.015209 0,-1.777567 0.713113,-3.185677 2.13934,-4.224333 1.426227,-1.038657 3.180103,-1.557985 5.261631,-1.557985 2.158611,0 3.825755,0.463562 5.001429,1.390684 1.185309,0.927124 1.777971,2.185361 1.777971,3.774714 z m -4.736742,-1.940552 c 0.200566,-1.885444 -1.459368,-2.30038 -2.272141,-2.30038 -1.305223,0.120561 -2.187974,1.09411 -2.174561,2.212416 z"
     style="font-style:normal;font-variant:normal;font-weight:bold;font-stretch:normal;font-size:88.813px;line-height:1.25;font-family:Ebrima;-inkscape-font-specification:'Ebrima Bold';letter-spacing:0px;word-spacing:0px;opacity:1;fill:#000000;stroke-width:0.944189"
     id="path55" />
  <path
     d="m 92.600017,18.87101 c -0.589928,-0.214877 -1.12775,-0.366297 -1.914324,-0.366297 -1.066009,0 -1.598293,0.263396 -2.198573,0.790191 -0.60028,0.519863 -0.900412,1.230343 -0.900412,2.13144 v 4.42453 H 82.680992 V 15.204075 h 4.905716 v 1.97548 h 0.06211 c 0.776221,-1.441755 2.173418,-2.162632 4.19159,-2.162632 0.517472,0 1.873813,0.613358 2.163601,0.696537 z"
     style="font-style:normal;font-variant:normal;font-weight:bold;font-stretch:normal;font-size:88.813px;line-height:1.25;font-family:Ebrima;-inkscape-font-specification:'Ebrima Bold';letter-spacing:0px;word-spacing:0px;opacity:1;fill:#000000;stroke-width:0.975729"
     id="path57" />
</svg>
